<svg xmlns="http://www.w3.org/2000/svg" width="512" height="512" viewBox="0 0 512 512" role="img" aria-label="K and J wedding monogram">
  <title>K&amp;J Monogram</title>
  <rect width="512" height="512" rx="96" fill="#F8F5EF"/>
  <path d="M 365.40 90.07 L 356.70 88.70 L 347.09 90.53 L 337.93 94.65 L 326.49 102.43 L 309.55 117.99 L 280.26 150.95 L 260.58 170.63 L 246.39 182.08 L 234.03 188.94 L 232.66 188.48 L 233.11 185.74 L 248.68 150.95 L 261.49 126.23 L 271.56 111.59 L 271.11 107.92 L 268.36 104.72 L 265.15 104.72 L 259.20 107.47 L 223.50 128.06 L 188.26 150.95 L 139.28 184.82 L 126.00 192.60 L 113.19 198.55 L 97.17 203.13 L 86.64 203.59 L 81.15 202.67 L 74.28 199.93 L 68.33 194.44 L 66.04 188.03 L 67.87 177.04 L 66.04 177.04 L 62.38 182.08 L 61.46 185.28 L 62.38 195.35 L 65.13 200.39 L 71.99 206.34 L 80.23 209.54 L 88.47 210.91 L 99.00 210.46 L 110.90 207.71 L 124.63 202.22 L 138.36 194.89 L 211.60 145.92 L 242.73 127.61 L 244.10 128.06 L 233.11 149.58 L 214.35 190.77 L 180.02 274.54 L 173.15 286.44 L 168.12 291.02 L 163.08 292.39 L 162.16 294.68 L 165.83 296.51 L 172.24 296.51 L 177.73 295.14 L 184.14 291.47 L 191.46 283.69 L 203.82 259.43 L 225.79 203.13 L 227.16 201.30 L 228.54 201.30 L 234.03 205.88 L 237.69 210.91 L 261.04 250.28 L 273.85 268.59 L 288.04 283.69 L 299.03 291.93 L 306.81 296.05 L 307.27 297.42 L 280.72 309.33 L 257.83 323.52 L 239.52 338.16 L 226.25 351.44 L 217.55 362.42 L 212.97 369.75 L 207.02 383.48 L 205.65 390.34 L 205.65 399.96 L 207.02 405.91 L 210.23 411.86 L 215.26 416.89 L 221.67 420.55 L 228.54 422.39 L 238.15 422.84 L 247.76 421.47 L 256.46 418.72 L 272.48 410.48 L 291.25 395.84 L 306.35 380.27 L 326.95 353.27 L 342.05 328.55 L 356.70 299.71 L 384.16 299.26 L 396.07 297.42 L 412.09 292.85 L 423.99 287.35 L 433.14 281.40 L 442.75 272.25 L 448.25 263.09 L 450.08 256.23 L 449.16 253.94 L 447.79 254.40 L 445.50 260.35 L 442.30 264.93 L 433.14 274.08 L 422.16 281.40 L 403.39 289.19 L 381.42 292.85 L 364.94 292.85 L 360.82 291.93 L 377.76 248.45 L 385.54 222.81 L 391.03 198.55 L 392.86 184.82 L 391.95 169.26 L 388.74 162.39 L 386.00 159.65 L 381.88 157.82 L 375.01 157.36 L 365.40 160.11 L 350.75 168.80 L 337.48 179.79 L 326.95 190.77 L 318.71 201.30 L 313.22 210.00 L 306.35 226.02 L 304.98 239.75 L 308.64 250.74 L 311.84 254.40 L 317.34 257.60 L 323.74 258.06 L 324.20 256.69 L 323.29 255.77 L 318.71 254.40 L 314.59 250.28 L 311.84 242.04 L 313.67 228.31 L 321.91 210.91 L 338.39 189.86 L 353.50 176.13 L 368.14 166.97 L 374.55 165.14 L 379.13 166.51 L 380.96 172.01 L 380.50 179.79 L 373.18 212.29 L 359.91 250.28 L 341.60 291.47 L 325.58 292.85 L 315.05 288.27 L 304.98 280.95 L 296.28 272.25 L 286.67 260.35 L 255.08 210.00 L 249.13 202.22 L 241.81 195.35 L 242.73 193.52 L 250.96 189.86 L 262.87 182.08 L 279.34 168.34 L 292.62 155.07 L 320.08 123.94 L 339.31 105.64 L 345.72 101.06 L 355.33 96.48 L 364.02 95.56 L 369.52 97.85 L 370.43 96.48 L 369.98 93.73 Z M 337.48 299.71 L 322.37 329.47 L 304.98 356.93 L 289.41 377.07 L 274.31 392.63 L 256.92 405.91 L 242.27 412.77 L 235.86 414.15 L 226.71 413.69 L 220.75 410.94 L 217.55 407.74 L 214.80 402.70 L 213.89 398.13 L 214.35 389.89 L 217.09 381.19 L 222.13 371.58 L 228.54 362.42 L 236.32 353.27 L 249.13 340.91 L 275.22 321.68 L 296.28 310.24 L 320.08 301.54 L 331.98 299.26 Z" fill="#1F3F66" fill-rule="evenodd"/>
</svg>
